<?xml version="1.0" standalone="no"?>
<!DOCTYPE svg PUBLIC "-//W3C//DTD SVG 20010904//EN"
 "http://www.w3.org/TR/2001/REC-SVG-20010904/DTD/svg10.dtd">
<svg version="1.0" xmlns="http://www.w3.org/2000/svg"
 width="1024.000000pt" height="1024.000000pt" viewBox="0 0 1024.000000 1024.000000"
 preserveAspectRatio="xMidYMid meet">

<g transform="translate(0.000000,1024.000000) scale(0.100000,-0.100000)"
fill="#000000" stroke="none">
<path d="M0 5120 l0 -5120 5120 0 5120 0 0 5120 0 5120 -5120 0 -5120 0 0
-5120z m5511 4769 c637 -50 1222 -206 1774 -473 619 -300 1169 -718 1619
-1232 584 -667 973 -1477 1106 -2299 49 -305 55 -388 54 -730 0 -425 -26 -668
-110 -1024 -131 -555 -362 -1082 -693 -1581 -468 -705 -1194 -1341 -1971
-1729 -541 -269 -1054 -413 -1720 -483 -187 -19 -725 -16 -915 5 -932 107
-1675 400 -2423 954 -1085 804 -1793 1966 -1976 3243 -35 244 -46 630 -26 918
60 853 382 1698 930 2437 466 629 1112 1164 1835 1519 312 153 687 285 1029
362 258 58 544 100 791 117 122 8 573 6 696 -4z"/>
<path d="M4855 9714 c-22 -2 -96 -8 -165 -14 -390 -33 -851 -140 -1218 -281
-665 -258 -1200 -605 -1698 -1103 -262 -262 -418 -453 -607 -743 -323 -495
-538 -1012 -652 -1564 -91 -442 -113 -944 -60 -1376 110 -899 454 -1681 1059
-2408 126 -151 435 -460 586 -586 724 -605 1618 -993 2522 -1094 222 -25 664
-31 893 -11 496 42 888 133 1345 313 1227 483 2248 1506 2713 2719 163 424
248 808 278 1248 13 197 7 643 -11 811 -102 954 -550 1896 -1244 2614 -645
667 -1437 1129 -2308 1345 -388 96 -638 127 -1073 131 -176 2 -338 1 -360 -1z
m753 -216 c59 -15 144 -96 162 -154 19 -61 24 -209 10 -273 -54 -248 -306
-337 -430 -152 -50 74 -63 129 -58 250 3 101 6 112 41 184 42 84 80 121 149
142 55 17 69 18 126 3z m-368 -82 c0 -46 3 -91 6 -100 4 -11 0 -16 -14 -16
-15 0 -24 12 -36 48 -21 63 -49 92 -88 92 l-30 0 7 -227 c4 -126 10 -246 14
-268 6 -36 9 -40 39 -43 26 -3 32 -7 32 -28 0 -26 16 -24 -260 -28 -29 -1 -36
3 -38 22 -3 19 1 22 27 22 19 0 33 7 39 18 4 9 3 132 -2 272 l-11 255 -28 -2
c-16 -1 -36 -8 -44 -15 -22 -18 -43 -71 -43 -108 0 -27 -3 -31 -22 -28 -22 3
-23 7 -23 103 l0 100 110 6 c61 3 167 6 238 7 l127 2 0 -84z m-670 24 c0 -13
-7 -20 -19 -20 -43 0 -45 -19 -17 -217 14 -104 28 -213 32 -243 9 -71 19 -90
50 -90 65 0 114 58 114 135 0 46 15 75 40 75 15 0 20 -10 25 -64 4 -35 8 -87
9 -117 l1 -53 -38 -8 c-82 -17 -389 -58 -398 -52 -18 11 -8 30 21 41 24 9 30
17 30 40 0 35 -58 470 -66 495 -4 13 -16 18 -40 18 -27 0 -34 4 -34 20 0 11 1
20 3 21 14 4 239 37 260 38 21 1 27 -4 27 -19z m-474 -106 c87 -50 152 -152
180 -284 32 -154 -17 -290 -123 -344 -43 -22 -137 -20 -188 3 -44 20 -114 90
-140 141 -57 110 -78 250 -52 340 44 151 195 218 323 144z m2381 -29 c156 -52
162 -55 213 -101 53 -48 74 -113 68 -213 -9 -129 -72 -256 -156 -316 -40 -27
-51 -30 -125 -30 -74 0 -95 5 -215 50 -98 36 -132 53 -130 65 2 9 16 16 35 18
17 2 36 9 41 15 7 9 107 303 158 465 2 7 -7 24 -21 38 -20 20 -26 54 -8 54 3
0 66 -20 140 -45z m-2843 -92 c6 -15 -8 -32 -25 -33 -22 0 -11 -43 43 -166 33
-77 76 -179 95 -229 43 -106 57 -126 92 -123 16 2 26 -2 28 -12 3 -11 -28 -29
-111 -64 -63 -26 -119 -45 -125 -41 -16 9 -13 32 4 39 8 3 15 14 15 25 0 19
-76 208 -90 224 -7 8 -101 -26 -126 -45 -9 -6 1 -38 33 -111 53 -121 60 -130
89 -124 24 4 42 -19 27 -34 -4 -4 -59 -30 -121 -58 -105 -46 -113 -48 -122
-31 -13 25 -13 27 10 33 35 9 23 54 -78 287 -95 221 -97 225 -127 225 -23 1
-31 6 -33 21 -3 20 49 47 229 122 3 2 9 -5 13 -14 4 -11 -1 -22 -15 -32 -28
-19 -22 -52 25 -154 l35 -78 53 21 c29 12 59 23 66 26 17 7 16 11 -24 104 -42
99 -49 109 -80 109 -17 0 -24 6 -24 19 0 15 25 29 108 65 120 51 127 53 136
29z m3545 -176 c51 -34 97 -103 105 -160 21 -140 -108 -379 -236 -437 -79 -36
-188 -21 -246 33 -49 45 -66 95 -66 187 1 69 6 98 28 150 37 90 90 164 147
206 62 46 90 54 165 51 48 -2 71 -9 103 -30z m-4111 -176 c51 -97 52 -98 30
-108 -19 -8 -31 -3 -74 32 -52 43 -105 61 -140 49 -58 -21 -73 -83 -29 -124
22 -20 37 -23 152 -29 88 -5 137 -12 158 -23 120 -64 154 -229 67 -321 -40
-43 -80 -61 -147 -67 -52 -4 -60 -8 -63 -27 -2 -12 -9 -24 -17 -27 -15 -5 -25
9 -94 136 -40 73 -41 77 -22 87 14 8 22 7 31 -4 7 -8 39 -33 72 -55 71 -47
133 -55 168 -20 31 31 27 83 -11 114 -17 14 -34 26 -37 27 -4 0 -54 4 -112 8
-174 12 -248 65 -258 186 -6 71 2 97 40 141 37 42 82 64 132 64 47 0 66 9 66
30 0 16 11 27 31 29 3 1 29 -43 57 -98z m4470 -51 c103 -65 124 -94 72 -96
-14 0 -30 -1 -37 -2 -6 -1 -70 -90 -142 -197 -90 -134 -131 -205 -131 -224 0
-60 86 -96 143 -58 23 15 179 242 239 347 23 39 23 41 5 72 -15 26 -16 34 -5
45 11 11 25 5 81 -36 37 -27 72 -51 78 -53 6 -2 7 -12 3 -21 -5 -13 -13 -17
-29 -13 -36 9 -67 -23 -166 -172 -50 -75 -106 -156 -125 -178 -60 -75 -135
-92 -221 -52 -101 47 -156 140 -129 218 13 37 129 220 211 331 47 64 56 98 30
119 -12 10 -13 16 -4 27 15 17 5 21 127 -57z m-1805 -249 c43 -10 82 -23 86
-27 5 -5 30 -90 56 -189 27 -99 54 -191 60 -204 12 -24 13 -22 30 35 28 94 52
225 47 251 -3 14 -15 28 -29 34 -16 6 -23 15 -21 27 4 21 4 21 111 -3 78 -17
87 -22 87 -42 0 -18 -6 -23 -24 -23 -14 0 -31 -9 -40 -21 -14 -21 -61 -183
-119 -414 l-32 -130 -35 3 c-19 2 -41 7 -49 12 -8 4 -33 79 -57 168 -24 89
-53 194 -65 234 -25 86 -24 88 -69 -97 -38 -158 -39 -199 -5 -221 20 -13 23
-20 15 -35 -6 -10 -16 -16 -23 -14 -6 2 -45 13 -84 25 -64 18 -73 24 -73 44 0
19 4 22 24 19 18 -4 28 1 39 19 9 12 39 121 68 241 56 234 57 262 11 282 -22
10 -28 25 -15 38 9 10 20 9 106 -12z m-1470 -105 l-25 -30 7 -282 8 -282 -54
-15 c-29 -9 -56 -14 -60 -11 -5 2 -78 98 -163 212 -85 114 -164 216 -175 226
-10 10 -29 16 -41 14 -16 -2 -25 4 -31 19 -7 20 -1 25 99 63 137 53 157 57
166 33 5 -12 1 -22 -13 -32 -12 -7 -21 -19 -21 -26 0 -11 194 -273 222 -300
14 -14 0 312 -15 345 -8 17 -22 26 -42 28 -27 3 -44 16 -45 33 0 5 112 43 185
63 23 6 21 -30 -2 -58z m3800 -7 c62 -33 163 -150 150 -173 -18 -33 -125 -146
-138 -146 -28 0 -24 32 10 82 75 109 17 185 -97 127 -52 -27 -204 -177 -251
-249 -60 -90 -62 -157 -6 -185 28 -15 33 -15 54 -1 34 22 125 134 125 152 0 9
-8 29 -17 45 -13 21 -14 32 -6 40 9 9 33 -4 98 -51 47 -34 84 -67 82 -74 -2
-6 -15 -12 -30 -14 -19 -2 -46 -28 -102 -98 -88 -109 -100 -113 -200 -65 -116
56 -159 118 -153 225 5 115 74 225 200 320 85 64 223 95 281 65z m-5667 -73
c28 -13 76 -49 106 -79 134 -137 165 -301 75 -404 -17 -19 -77 -74 -132 -122
-55 -47 -104 -92 -109 -101 -24 -38 -111 -120 -128 -120 -24 0 -71 24 -129 66
-72 52 -116 68 -150 53 -16 -6 -29 -15 -29 -19 0 -11 180 -160 194 -160 6 0
17 5 23 11 8 8 17 8 32 0 20 -11 16 -17 -70 -116 -81 -92 -94 -102 -110 -92
-23 14 -24 21 -4 37 26 21 17 36 -62 101 -43 35 -121 102 -173 148 -52 47
-105 94 -118 105 -19 17 -26 18 -43 8 -16 -10 -23 -10 -38 0 -20 14 -23 11
164 224 82 93 145 114 231 75 75 -34 110 -114 80 -186 -9 -20 -16 -39 -16 -40
0 -1 31 -5 69 -7 55 -4 82 -12 135 -42 67 -38 80 -38 104 -4 7 10 22 18 33 18
15 0 19 6 17 20 -4 27 -346 390 -367 390 -9 0 -22 -5 -27 -10 -8 -8 -15 -6
-24 5 -12 14 -2 27 75 98 164 152 188 166 280 167 43 0 75 -7 111 -24z m4009
-67 c55 -15 120 -82 135 -139 16 -60 8 -161 -20 -233 -43 -115 -126 -193 -216
-203 -162 -20 -263 124 -219 311 20 89 58 157 117 210 65 58 127 75 203 54z
m-2791 -160 c40 -75 44 -88 31 -99 -12 -10 -21 -7 -52 18 -96 75 -171 92 -212
48 -42 -45 -22 -144 55 -272 87 -146 186 -194 255 -125 34 35 39 86 13 152
-14 35 -15 42 -3 50 27 17 40 9 61 -37 29 -66 22 -156 -15 -213 -40 -61 -113
-95 -202 -95 -104 0 -180 45 -245 145 -76 118 -92 278 -37 372 49 83 110 117
210 117 32 0 47 4 47 13 0 7 5 18 12 25 17 17 26 5 82 -99z m1741 11 c33 -12
75 -34 94 -48 37 -28 37 -23 6 -167 -22 -107 -19 -230 9 -343 13 -53 27 -117
31 -141 5 -27 17 -54 32 -69 25 -25 27 -25 143 -18 125 7 155 1 189 -35 60
-65 -9 -157 -190 -252 -63 -33 -64 -34 -62 -71 2 -21 8 -45 15 -53 6 -8 53
-34 103 -58 51 -24 100 -51 109 -60 21 -22 20 -67 -2 -94 -18 -23 -158 -75
-174 -65 -22 14 1 38 57 58 50 18 60 25 60 45 0 19 -16 32 -83 70 -46 26 -93
58 -106 72 -23 24 -70 154 -61 168 2 5 25 11 50 13 29 4 71 21 117 49 103 62
128 86 128 119 0 48 -16 53 -157 45 -190 -9 -214 9 -248 185 -9 47 -23 114
-30 150 -21 96 -19 218 6 312 11 44 18 86 15 93 -7 20 -109 54 -193 66 -159
22 -332 -19 -558 -134 -127 -64 -225 -146 -225 -186 0 -12 16 -31 43 -49 23
-16 50 -38 60 -49 22 -25 60 -137 93 -277 37 -157 28 -148 126 -117 83 25 84
25 398 23 260 -3 319 -6 338 -18 58 -38 -10 -74 -143 -77 -63 -2 -99 4 -169
26 -61 19 -122 29 -190 33 -90 5 -111 3 -190 -20 -49 -15 -113 -38 -143 -52
-59 -28 -257 -156 -267 -172 -4 -6 -11 -37 -17 -69 -6 -32 -18 -78 -26 -103
l-15 -44 30 -27 c17 -15 59 -35 93 -45 34 -10 74 -28 90 -42 l29 -24 19 45
c13 31 44 66 101 116 83 74 188 147 197 138 9 -9 -70 -89 -127 -127 -30 -21
-65 -48 -77 -61 -61 -66 -87 -210 -63 -341 11 -57 11 -83 0 -149 -16 -99 -12
-105 62 -89 41 9 60 10 76 1 11 -6 23 -7 26 -3 3 5 10 46 15 92 6 46 15 88 20
93 13 13 51 -42 51 -74 0 -16 -5 -49 -12 -74 -10 -38 -10 -56 5 -113 9 -37 21
-97 25 -134 5 -37 11 -70 13 -73 3 -2 34 -20 70 -38 49 -26 66 -40 73 -63 21
-71 22 -72 39 -31 11 26 13 43 7 55 -5 9 -21 45 -34 80 -14 34 -39 80 -55 101
-40 51 -51 81 -51 146 0 85 28 128 60 90 8 -10 10 -31 5 -64 -10 -73 1 -105
56 -168 54 -62 63 -85 57 -138 -4 -34 4 -46 17 -25 3 6 37 35 75 65 43 34 67
61 64 69 -3 7 -23 22 -45 32 -92 41 -114 113 -53 170 22 20 34 39 31 47 -3 8
-30 23 -59 32 -120 40 -183 85 -194 142 -9 47 18 49 59 4 49 -54 85 -77 152
-96 120 -35 160 -95 90 -136 -73 -44 -65 -93 22 -125 62 -23 73 -32 73 -59 0
-36 -33 -68 -120 -115 -91 -49 -122 -81 -118 -119 2 -21 16 -33 75 -61 79 -39
108 -61 129 -102 19 -37 17 -64 -11 -128 -27 -64 -24 -79 43 -177 89 -131 226
-237 378 -294 64 -24 48 -32 169 81 39 36 119 109 178 163 66 61 107 106 107
118 0 29 -45 92 -80 113 -17 9 -70 26 -118 36 -48 10 -96 21 -107 25 -17 5
-31 -10 -85 -92 -36 -53 -82 -116 -103 -140 -44 -48 -99 -72 -122 -53 -20 17
-152 257 -183 333 -29 71 -26 114 13 211 22 55 25 77 25 187 -1 68 -5 143 -9
166 -4 23 -5 46 -2 52 13 20 99 44 191 52 52 4 111 13 130 18 58 18 90 13 127
-19 18 -16 39 -30 46 -30 6 0 33 21 59 47 58 57 61 81 16 162 -31 56 -33 91
-6 91 19 0 108 -129 108 -156 0 -13 -5 -35 -12 -50 -13 -29 -142 -134 -164
-134 -8 0 -37 11 -64 25 -53 27 -95 31 -150 15 -19 -6 -75 -14 -123 -19 -49
-5 -92 -12 -97 -17 -5 -5 -3 -42 5 -89 8 -44 14 -105 15 -136 0 -33 5 -61 13
-66 6 -6 55 -27 107 -48 52 -21 148 -64 213 -97 l117 -58 0 -50 c0 -48 1 -49
38 -59 172 -47 183 -52 229 -97 26 -24 49 -44 51 -44 10 0 147 119 562 485
207 183 291 258 575 511 89 79 237 205 330 281 168 137 170 140 177 185 13 93
71 148 164 156 65 5 99 -13 121 -66 28 -67 -5 -165 -67 -197 -17 -9 -59 -25
-94 -35 -70 -22 -73 -24 -371 -305 -223 -211 -641 -593 -901 -826 -220 -198
-281 -256 -273 -262 48 -33 194 -178 316 -316 86 -97 218 -239 293 -316 93
-94 160 -174 207 -245 39 -58 98 -138 132 -179 69 -83 85 -110 96 -161 4 -19
22 -97 41 -173 72 -290 144 -674 144 -768 0 -43 -5 -51 -86 -145 -192 -220
-301 -329 -448 -446 -328 -262 -612 -424 -1011 -578 -237 -92 -483 -146 -781
-171 -168 -14 -521 -6 -713 16 -122 14 -182 25 -381 71 -82 19 -283 83 -383
123 -234 93 -611 296 -791 427 -170 124 -484 435 -535 531 -21 40 -11 66 78
202 230 353 405 704 542 1091 155 438 237 629 341 786 154 236 321 359 548
403 l84 17 26 65 c14 36 35 82 47 102 31 51 168 150 310 223 109 56 120 65
146 110 29 53 34 112 7 105 -8 -1 -40 -5 -71 -8 -52 -5 -57 -4 -78 23 -22 28
-23 34 -15 119 27 282 -4 365 -152 404 -56 15 -107 51 -118 84 -13 35 17 219
42 261 10 16 69 65 132 108 63 42 119 84 124 91 12 19 -59 311 -88 363 -11 21
-41 53 -66 72 -85 64 -88 109 -14 191 93 104 345 231 545 276 101 23 317 15
394 -15z m3043 -52 c111 -115 126 -136 112 -152 -9 -12 -15 -12 -39 2 -26 15
-30 15 -55 -5 -71 -56 -358 -317 -363 -330 -3 -9 7 -27 25 -46 40 -39 80 -38
162 3 50 25 64 29 76 19 13 -11 3 -25 -68 -96 -46 -46 -88 -82 -93 -81 -17 5
-295 300 -295 313 0 17 31 28 44 15 18 -18 31 -11 93 43 123 108 308 279 316
294 5 8 3 23 -6 37 -14 21 -14 25 1 40 9 9 17 16 18 16 1 0 33 -33 72 -72z
m-3123 -48 l27 -10 -7 -143 c-4 -78 -12 -153 -18 -167 l-10 -25 -8 30 c-5 17
-13 65 -18 107 -7 61 -15 88 -40 124 -36 55 -36 57 -15 78 18 18 51 20 89 6z
m1948 -101 c65 -34 97 -61 123 -105 68 -115 -12 -254 -145 -254 l-39 0 19 -37
c23 -45 24 -91 4 -140 -33 -78 -91 -113 -188 -113 -187 0 -343 216 -226 314
44 37 75 43 107 19 42 -31 41 -71 -3 -113 -41 -40 -44 -68 -10 -100 52 -49
141 -8 179 83 27 65 15 113 -36 146 -21 13 -38 30 -38 38 0 22 26 26 53 9 84
-55 190 20 191 135 2 89 -68 122 -85 41 -8 -39 -25 -61 -58 -73 -35 -14 -76 6
-92 43 -16 40 7 88 53 111 48 24 139 22 191 -4z m-2401 -21 c15 -24 51 -167
63 -251 l7 -47 -37 -16 c-47 -19 -56 -12 -85 69 -12 34 -33 90 -47 124 -28 69
-24 82 30 121 40 28 51 28 69 0z m-1804 -80 c47 -63 51 -73 38 -86 -13 -13
-19 -12 -51 8 -53 33 -105 31 -156 -5 -23 -17 -44 -35 -46 -41 -3 -9 80 -127
118 -168 10 -11 56 28 64 55 3 10 -1 34 -10 55 -12 30 -13 39 -3 46 25 15 35
7 91 -75 68 -100 72 -110 53 -126 -13 -11 -21 -9 -47 13 -37 32 -46 32 -82 3
l-28 -22 67 -80 c65 -78 81 -95 96 -95 5 0 26 16 48 36 53 48 65 92 47 162
-13 49 -13 53 4 63 16 8 25 0 63 -58 70 -107 72 -98 -51 -193 -60 -46 -141
-110 -182 -142 -40 -32 -76 -58 -80 -58 -3 0 -12 9 -18 19 -10 15 -9 22 2 31
34 28 30 35 -238 362 -47 57 -72 69 -95 46 -10 -10 -16 -8 -29 5 -16 16 -16
18 4 32 11 8 96 76 188 150 92 74 171 135 174 135 3 0 30 -32 59 -72z m3602
-148 c28 -28 25 -72 -6 -109 -34 -41 -83 -43 -113 -5 -29 37 -26 70 8 105 35
35 81 39 111 9z m2219 -145 c18 -30 31 -59 29 -64 -3 -10 -31 -45 -250 -309
-102 -123 -138 -173 -138 -193 0 -33 -30 -49 -45 -24 -5 10 -36 57 -68 107
-47 71 -56 92 -47 103 10 12 15 12 35 -1 28 -18 45 -11 94 39 l33 35 -46 71
c-25 39 -48 71 -51 71 -13 0 -62 -30 -75 -45 -7 -9 -16 -33 -19 -53 -10 -60
-37 -49 -87 33 -26 43 -39 74 -34 79 5 5 31 11 57 12 57 3 536 158 553 179 19
22 23 20 59 -40z m-7253 -39 c166 -44 315 -194 314 -315 -1 -93 -51 -175 -128
-213 -65 -31 -183 -31 -264 1 -211 82 -304 268 -211 419 62 101 168 141 289
108z m7476 -316 c71 -20 123 -97 139 -204 5 -35 11 -70 14 -78 5 -11 -14 -27
-67 -57 -40 -23 -80 -47 -90 -53 -13 -9 -20 -9 -32 1 -22 19 -21 22 24 74 70
79 91 166 50 207 -23 23 -30 24 -64 9 -33 -16 -53 -60 -61 -139 -20 -202 -48
-265 -137 -311 -144 -74 -288 18 -293 186 -2 52 -5 60 -24 65 -12 3 -23 10
-24 15 -1 14 65 56 138 87 94 41 102 42 110 18 5 -17 -4 -33 -43 -74 -53 -56
-68 -95 -57 -148 10 -46 23 -58 59 -58 62 0 89 53 106 206 17 156 66 231 165
255 43 10 46 10 87 -1z m-3614 -126 c24 -28 29 -71 10 -96 -9 -11 -36 -18 -83
-22 -38 -3 -91 -9 -116 -12 -44 -5 -48 -4 -71 28 -50 66 -63 97 -50 110 15 15
143 27 227 21 48 -4 65 -10 83 -29z m-413 -45 c4 -6 -5 -27 -19 -47 l-26 -37
24 -24 c13 -13 46 -36 73 -50 37 -20 49 -32 51 -53 4 -36 -15 -36 -54 -3 -35
31 -121 75 -146 75 -21 0 -24 -23 -5 -38 7 -6 35 -19 62 -29 41 -15 50 -23 50
-43 0 -20 -6 -26 -27 -28 -34 -4 -124 43 -131 69 -7 26 20 145 39 174 9 14 24
30 33 35 22 13 68 12 76 -1z m1455 -14 c54 -28 76 -87 50 -136 -6 -10 -50 -39
-98 -63 -48 -24 -134 -71 -191 -104 -115 -67 -208 -108 -219 -97 -11 11 45 53
165 125 59 35 134 81 166 103 32 21 74 45 93 53 18 8 34 21 34 29 0 16 -35 55
-49 55 -5 0 -58 -39 -118 -88 -59 -48 -131 -104 -158 -124 -60 -43 -192 -103
-264 -120 -48 -11 -53 -10 -74 10 -18 18 -20 26 -10 40 6 9 17 15 25 12 82
-29 267 64 428 216 108 102 157 122 220 89z m-5383 -89 c2 -1 -3 -17 -9 -34
-8 -20 -9 -35 -3 -41 22 -20 438 -202 451 -197 16 6 41 59 50 104 6 30 -13 55
-74 102 -30 23 -32 27 -19 44 14 19 17 18 110 -18 53 -21 99 -40 101 -44 2 -4
-43 -103 -100 -220 -96 -199 -104 -212 -123 -202 -16 8 -19 17 -14 40 6 30 5
31 -118 89 -174 82 -315 141 -338 141 -11 0 -22 -9 -26 -19 -4 -13 -12 -17
-26 -14 -10 3 -21 9 -24 12 -2 4 16 50 40 102 25 52 52 111 60 132 13 33 19
37 38 31 12 -3 23 -7 24 -8z m4337 -29 c27 -20 16 -50 -22 -61 -43 -12 -116 3
-120 26 -7 37 102 64 142 35z m-537 -119 c16 -15 23 -33 23 -59 0 -20 7 -42
15 -49 8 -7 15 -21 15 -33 0 -17 -5 -19 -42 -14 -24 2 -50 6 -58 8 -19 5 -26
-37 -8 -58 7 -9 27 -22 45 -30 42 -17 34 -43 -13 -43 -116 0 -240 154 -193
241 31 59 168 82 216 37z m757 16 c9 -3 16 -10 16 -16 0 -14 -43 -5 -48 10 -4
13 7 15 32 6z m41 -153 c3 -6 -4 -34 -15 -63 -11 -29 -20 -67 -20 -85 0 -37
-20 -47 -86 -44 -53 2 -75 -22 -82 -89 -4 -45 -7 -51 -26 -48 -44 6 -23 125
30 169 9 7 40 16 68 19 l51 5 5 52 c7 67 53 119 75 84z m174 -66 c37 -42 37
-46 10 -71 -14 -12 -36 -18 -71 -19 -43 0 -53 4 -70 26 -16 22 -17 29 -7 52
15 34 26 34 61 0 27 -26 51 -26 31 -1 -42 55 -1 66 46 13z m-328 0 c38 -20 31
-31 -27 -40 -26 -3 -57 -12 -71 -18 -17 -7 -27 -7 -35 1 -8 8 -3 19 20 41 34
35 67 39 113 16z m419 -139 c18 -23 8 -61 -17 -64 -29 -4 -48 30 -33 58 13 24
33 26 50 6z m2910 -2086 c5 0 10 -10 12 -22 3 -19 20 -27 118 -55 154 -45 412
-113 428 -113 7 0 18 11 24 25 9 19 16 24 32 19 12 -4 23 -8 26 -11 4 -4 -51
-180 -75 -240 -11 -25 -18 -30 -35 -26 -16 4 -20 11 -16 28 11 43 -12 54 -257
119 -131 35 -232 57 -225 50 25 -24 433 -244 453 -244 41 0 46 -12 27 -69
l-17 -54 -75 7 c-357 29 -463 36 -468 31 -11 -10 365 -165 402 -165 14 0 34 9
44 20 14 15 25 18 40 13 20 -8 19 -11 -25 -115 -41 -98 -46 -106 -66 -99 -18
7 -21 15 -19 43 2 22 -3 42 -15 56 -23 28 -437 205 -483 206 -27 1 -37 -4 -45
-21 -6 -14 -19 -23 -32 -23 -33 0 -29 28 16 135 33 80 41 90 65 93 15 2 118
-6 228 -18 110 -11 202 -20 203 -18 2 2 -36 27 -83 57 -48 29 -122 77 -166
104 -71 47 -79 50 -91 34 -14 -19 -24 -21 -43 -8 -12 7 15 102 73 260 3 7 12
10 21 7 9 -3 19 -6 24 -6z m-7484 -35 c76 -40 120 -102 129 -183 3 -31 8 -69
10 -84 4 -25 0 -28 -58 -47 -34 -12 -82 -33 -106 -46 -41 -24 -45 -24 -62 -9
-28 26 -23 37 28 64 103 55 141 122 92 166 -41 37 -178 17 -357 -52 -147 -57
-203 -125 -157 -191 22 -31 87 -46 161 -39 61 6 62 6 67 -21 7 -37 1 -42 -64
-52 -57 -10 -119 -3 -156 17 -72 39 -123 152 -109 245 23 150 220 270 433 264
78 -2 99 -7 149 -32z m253 -528 c64 -139 75 -170 75 -219 1 -50 -3 -61 -29
-89 -79 -84 -235 -93 -277 -16 -11 21 -12 19 -20 -23 -11 -63 -54 -119 -123
-161 -50 -30 -60 -41 -60 -64 -1 -19 -8 -30 -21 -36 -18 -6 -26 4 -68 89 -27
54 -43 98 -37 100 21 7 187 122 219 152 32 30 39 53 24 78 -9 14 -32 8 -164
-47 -79 -33 -95 -50 -78 -81 8 -15 6 -21 -11 -31 -12 -6 -24 -7 -28 -2 -10 11
-111 241 -111 252 0 5 11 11 24 13 18 4 27 -1 35 -19 6 -12 15 -23 20 -23 5 0
56 20 113 44 56 24 155 64 218 90 196 80 183 72 177 111 -6 34 1 43 33 44 10
1 40 -55 89 -162z m6980 -101 c9 -10 9 -20 -1 -40 -17 -39 -1 -51 219 -160
105 -53 205 -108 222 -122 87 -73 81 -188 -16 -294 -48 -54 -86 -70 -163 -70
-75 0 -124 20 -320 129 -80 44 -150 81 -157 81 -6 0 -20 -11 -30 -25 -13 -18
-24 -23 -40 -19 -13 4 -23 10 -23 14 0 12 130 280 136 280 3 0 14 -5 24 -10
15 -8 18 -17 13 -44 -5 -34 -4 -35 68 -75 193 -107 358 -184 397 -185 84 -2
125 92 66 150 -27 28 -376 201 -422 210 -20 4 -33 0 -46 -15 -15 -17 -21 -18
-40 -8 -11 7 -22 13 -24 13 -2 1 20 47 47 103 50 99 67 115 90 87z m-6730
-387 c51 -88 104 -173 117 -189 25 -29 31 -50 15 -50 -6 0 -47 -25 -92 -55
-63 -43 -85 -52 -96 -44 -19 16 -16 33 8 55 49 44 61 106 34 169 -24 58 -33
57 -172 -23 -35 -20 -63 -42 -63 -49 0 -6 10 -24 23 -38 22 -26 24 -27 66 -14
44 13 60 6 61 -29 0 -14 -75 -64 -159 -107 -52 -26 -55 -26 -68 -9 -17 24 -17
25 12 64 14 19 25 42 25 51 0 27 -11 49 -25 49 -19 0 -196 -111 -202 -126 -8
-22 46 -104 75 -115 25 -10 80 -4 157 17 13 3 24 -2 32 -15 12 -19 7 -24 -60
-60 -39 -22 -88 -52 -106 -66 l-35 -25 -16 27 c-39 64 -209 369 -215 384 -8
22 36 35 48 14 4 -8 13 -15 20 -15 11 0 167 90 410 236 79 47 81 50 62 96 -6
15 5 23 40 27 6 0 52 -71 104 -160z m6555 -268 c105 -37 221 -136 262 -226 32
-68 32 -143 0 -210 -13 -27 -59 -88 -101 -135 -43 -47 -91 -102 -108 -122 -33
-41 -48 -46 -67 -23 -10 12 -9 20 4 39 14 23 14 26 -2 45 -33 38 -397 321
-413 321 -9 0 -22 -7 -29 -15 -12 -14 -16 -13 -37 7 l-23 22 33 35 c19 20 64
74 101 121 77 96 109 125 163 145 55 20 154 18 217 -4z m-6292 -110 c120 -144
141 -186 136 -264 -5 -84 -38 -147 -117 -227 -91 -92 -160 -124 -266 -125
-116 0 -149 20 -284 175 -105 120 -109 126 -92 143 17 17 19 17 47 1 l30 -17
124 99 c69 55 163 129 210 165 47 36 86 73 88 83 2 9 -4 26 -13 36 -15 17 -15
19 2 29 10 6 25 10 33 8 8 -1 54 -49 102 -106z m5770 -345 c48 -20 105 -87
114 -132 5 -27 1 -50 -14 -87 l-21 -50 40 6 c58 8 128 -14 187 -56 59 -44 74
-45 101 -11 25 32 51 26 51 -11 0 -82 -116 -172 -189 -147 -15 6 -65 37 -110
71 -87 64 -127 76 -166 47 -18 -13 -17 -16 22 -62 48 -58 138 -144 151 -144 4
0 17 6 28 14 16 13 21 12 36 -1 15 -13 10 -21 -65 -86 -168 -149 -152 -139
-172 -117 -16 18 -16 20 4 41 12 13 21 27 21 31 0 16 -373 408 -388 408 -8 0
-23 -7 -33 -16 -16 -14 -18 -14 -29 5 -14 28 -9 35 110 145 118 110 150 135
197 152 50 17 83 17 125 0z m-5339 -92 c110 -55 162 -169 132 -287 -21 -83
-74 -165 -151 -236 -85 -78 -140 -104 -227 -109 -57 -4 -75 0 -122 22 -133 66
-166 210 -84 372 49 97 167 208 256 240 53 19 157 18 196 -2z m4889 -236 c-29
-29 -13 -65 103 -220 138 -183 165 -233 165 -303 0 -63 -24 -104 -94 -156 -82
-62 -166 -75 -242 -38 -36 17 -67 53 -186 216 l-143 195 -37 -5 c-21 -3 -38
-4 -38 -2 0 2 -2 10 -5 17 -4 10 32 42 108 96 63 45 119 82 125 82 6 0 16 -8
21 -18 7 -14 5 -21 -10 -30 -10 -7 -19 -21 -19 -32 0 -28 283 -404 315 -418
42 -19 74 -14 106 17 55 56 37 108 -106 297 -143 189 -151 197 -202 191 -36
-4 -43 -1 -49 15 -4 13 0 24 13 33 10 7 47 36 83 63 64 51 65 51 85 32 15 -16
17 -22 7 -32z m-4109 -318 c126 -47 188 -175 152 -315 -36 -141 -123 -263
-225 -313 l-59 -30 22 -34 c12 -18 37 -40 55 -50 46 -23 47 -24 28 -53 -19
-29 -70 -34 -116 -10 -30 16 -64 64 -75 105 -5 20 -18 30 -55 43 -99 35 -150
121 -150 252 0 124 47 229 149 329 42 42 74 64 113 77 68 24 95 23 161 -1z
m3623 -87 c53 -91 56 -97 38 -110 -24 -18 -26 -17 -70 18 -77 62 -150 76 -198
38 -22 -17 -26 -28 -24 -57 5 -60 33 -72 194 -81 112 -7 149 -13 181 -30 64
-32 113 -111 113 -180 0 -81 -60 -168 -139 -204 -54 -24 -194 -35 -215 -18
-24 20 -98 150 -91 161 11 17 31 11 76 -23 64 -49 103 -67 146 -67 80 0 124
51 103 115 -17 52 -51 65 -164 65 -52 0 -118 5 -146 11 -93 20 -160 103 -160
198 0 116 70 188 195 200 49 5 60 9 64 26 3 19 18 35 33 35 4 0 32 -44 64 -97z
m-3161 -143 c50 -19 91 -35 93 -36 2 -1 -1 -12 -8 -23 -7 -15 -17 -20 -33 -16
-12 3 -28 2 -34 -3 -13 -8 -116 -268 -159 -399 -17 -53 -21 -79 -14 -97 22
-58 111 -76 156 -31 31 32 50 75 120 284 54 164 56 172 40 196 -9 14 -21 25
-26 25 -11 0 -14 33 -4 42 3 4 52 -10 110 -29 95 -32 103 -36 94 -54 -6 -10
-21 -19 -34 -19 -13 0 -30 -8 -39 -17 -8 -10 -45 -101 -82 -203 -37 -102 -78
-204 -91 -227 -48 -83 -129 -114 -229 -88 -109 29 -167 87 -173 174 -3 50 5
78 77 272 45 119 81 223 81 232 0 9 -10 22 -22 28 -31 16 -31 15 -19 38 11 20
12 20 59 2 26 -10 88 -33 137 -51z m2651 -39 c46 -21 82 -71 91 -125 8 -48 -2
-80 -37 -119 l-29 -33 58 -12 c70 -15 107 -42 132 -96 44 -97 7 -186 -101
-241 -25 -12 -119 -46 -209 -75 -157 -51 -164 -53 -177 -35 -13 17 -11 20 16
31 21 9 30 20 30 36 0 38 -159 502 -176 515 -11 8 -24 9 -40 3 -19 -7 -24 -5
-29 11 -4 12 -3 25 2 29 9 10 280 107 333 120 56 13 92 11 136 -9z m-2128
-122 c118 -30 132 -36 130 -54 -2 -15 -10 -19 -29 -17 -38 4 -52 -20 -88 -153
-18 -66 -48 -173 -67 -238 -18 -64 -34 -125 -34 -135 0 -23 19 -42 43 -42 13
0 17 -5 13 -16 -3 -9 -6 -20 -6 -25 0 -13 -45 -4 -184 35 -92 26 -111 34 -108
49 2 10 12 17 26 17 38 0 53 22 76 110 12 47 42 156 67 244 24 87 43 168 41
179 -2 12 -15 28 -31 35 -23 11 -26 16 -16 33 6 11 16 19 22 16 7 -2 72 -19
145 -38z m1596 -298 c80 -158 152 -291 160 -294 9 -4 23 -4 32 0 12 4 15 0 12
-23 -3 -25 -8 -29 -48 -37 -25 -4 -85 -17 -133 -28 -48 -11 -92 -17 -97 -14
-18 11 -10 32 15 43 32 15 31 29 -2 97 -20 40 -33 55 -48 55 -28 -1 -139 -25
-153 -34 -7 -4 -12 -32 -12 -66 0 -63 13 -80 59 -80 14 0 21 -6 21 -19 0 -20
-29 -29 -159 -50 -64 -10 -80 8 -37 43 26 20 29 32 52 193 13 95 30 238 38
318 7 80 16 149 19 152 5 5 98 28 129 32 5 1 73 -129 152 -288z m-1138 229
c24 0 24 2 80 -380 37 -251 48 -290 81 -290 7 0 13 -11 13 -26 0 -22 -4 -25
-22 -21 -13 3 -78 11 -145 18 -107 10 -123 14 -123 30 0 10 12 24 28 31 29 15
33 41 18 119 -7 40 -8 40 -123 55 l-53 7 -20 -44 c-32 -71 -23 -119 22 -119
13 0 18 -8 18 -25 0 -24 -3 -25 -32 -20 -38 6 -169 25 -180 25 -5 0 -8 11 -8
25 0 20 5 25 24 25 13 0 29 6 35 14 23 27 130 263 231 510 l33 78 51 -6 c28
-3 60 -6 72 -6z"/>
<path d="M5523 9435 c-46 -32 -77 -208 -71 -402 4 -128 17 -156 72 -151 67 7
100 129 101 371 0 155 -1 159 -24 178 -28 23 -49 24 -78 4z"/>
<path d="M3914 9279 c-14 -15 -19 -34 -18 -68 4 -100 93 -374 141 -431 52 -62
113 -28 113 63 0 109 -87 374 -143 435 -26 28 -68 28 -93 1z"/>
<path d="M6509 9203 c-10 -26 -130 -386 -149 -445 -12 -40 12 -62 58 -54 37 6
82 42 112 91 33 54 82 217 87 291 5 68 4 72 -23 102 -16 17 -39 33 -51 37 -19
5 -25 1 -34 -22z"/>
<path d="M7041 8953 c-23 -26 -74 -112 -113 -190 -59 -116 -72 -152 -76 -200
-5 -70 9 -89 58 -78 42 9 115 107 185 250 91 185 98 257 24 263 -33 3 -41 -2
-78 -45z"/>
<path d="M2143 8288 c-12 -6 -24 -16 -27 -23 -6 -17 340 -385 363 -385 48 0
62 69 28 136 -39 75 -193 241 -254 273 -27 14 -80 13 -110 -1z"/>
<path d="M1727 7870 c-15 -12 -27 -27 -27 -35 0 -7 36 -45 81 -85 78 -68 82
-71 100 -54 36 33 19 102 -38 156 -40 39 -81 45 -116 18z"/>
<path d="M6327 8231 c-30 -36 -91 -204 -112 -309 -22 -108 0 -162 54 -133 42
23 129 248 147 381 5 41 3 54 -11 70 -25 28 -49 25 -78 -9z"/>
<path d="M8020 7030 c-42 -42 -13 -116 50 -126 43 -7 68 10 76 53 5 27 1 37
-24 63 -36 35 -73 39 -102 10z"/>
<path d="M7877 6853 c-33 -39 -188 -184 -402 -373 -27 -24 -104 -94 -170 -155
-174 -160 -307 -280 -358 -323 -116 -98 -620 -544 -770 -682 -232 -213 -327
-299 -531 -484 -97 -88 -176 -163 -176 -168 0 -4 16 -15 36 -23 l37 -15 51 53
c44 45 359 335 551 507 126 113 474 428 590 535 66 60 185 169 265 240 79 72
310 283 514 470 203 187 383 350 400 363 22 16 38 21 58 17 28 -7 68 9 68 25
0 6 -18 10 -40 10 -31 0 -43 5 -56 25 -9 14 -19 25 -23 24 -3 0 -23 -21 -44
-46z"/>
<path d="M4768 6066 c-31 -62 -55 -82 -188 -156 -124 -69 -168 -99 -226 -157
-59 -59 -84 -114 -91 -202 -10 -117 46 -300 108 -358 24 -22 25 -22 52 -4 37
24 74 74 104 141 22 49 24 63 19 130 -19 224 -19 222 11 264 15 22 57 59 93
82 108 71 142 98 163 126 19 25 19 32 8 95 -17 97 -23 101 -53 39z"/>
<path d="M4835 5890 c-4 -6 11 -17 32 -26 21 -9 62 -26 90 -39 57 -26 75 -20
40 12 -57 53 -144 81 -162 53z"/>
<path d="M5470 5823 c-53 -83 -54 -79 116 -399 l32 -62 30 32 c16 17 55 69 86
116 31 47 70 103 87 125 19 27 28 47 23 58 -11 30 -287 176 -332 177 -7 0 -26
-21 -42 -47z"/>
<path d="M4810 5803 c1 -21 77 -87 114 -98 23 -7 49 -16 58 -20 13 -5 19 2 27
31 12 42 8 54 -18 54 -10 0 -44 9 -76 20 -59 20 -105 26 -105 13z"/>
<path d="M4663 5755 c-22 -19 -48 -52 -56 -73 -14 -35 -14 -48 0 -133 27 -160
-2 -260 -109 -375 -81 -86 -137 -102 -181 -50 -46 55 -98 201 -122 349 -7 42
-6 42 -108 23 -176 -34 -314 -142 -459 -361 -99 -150 -143 -252 -293 -680
-172 -489 -297 -754 -567 -1197 -68 -112 -88 -153 -83 -169 12 -38 398 -407
452 -432 19 -8 34 0 115 68 51 42 135 115 185 162 91 83 93 85 87 121 -4 29 5
63 41 156 164 424 290 644 490 855 225 237 249 329 161 597 -25 77 -46 148
-46 157 0 12 24 23 88 42 359 107 433 147 488 263 17 35 16 38 -16 134 -33 96
-33 100 -17 134 22 46 21 95 -4 190 -32 120 -33 127 -10 165 21 34 29 89 13
89 -5 0 -27 -16 -49 -35z"/>
<path d="M4765 5686 c-4 -21 0 -71 10 -121 9 -47 15 -113 13 -145 -2 -37 1
-59 7 -57 6 2 24 28 42 58 18 30 50 72 71 94 39 40 82 112 82 138 0 11 -14 11
-77 4 l-77 -10 -32 38 -33 37 -6 -36z"/>
<path d="M5170 5684 c0 -3 16 -35 35 -71 19 -36 35 -73 35 -82 1 -32 30 22 30
55 0 24 -9 40 -40 68 -37 33 -60 45 -60 30z"/>
<path d="M5077 5644 c-32 -66 -87 -302 -87 -372 0 -37 -7 -87 -16 -111 -17
-51 -13 -71 15 -71 11 0 25 -9 31 -20 13 -24 52 -26 74 -4 9 8 16 18 16 21 0
3 -17 32 -37 66 -68 108 -49 203 54 278 62 44 64 65 12 165 -23 46 -43 84 -44
84 -1 0 -9 -16 -18 -36z"/>
<path d="M4916 5448 c-9 -12 -16 -27 -16 -33 0 -27 -60 -103 -94 -119 -20 -9
-36 -20 -36 -25 0 -4 16 -22 35 -41 19 -19 35 -44 35 -56 0 -12 -19 -57 -41
-99 -34 -62 -39 -79 -28 -86 30 -19 51 0 47 42 -3 31 -1 34 35 42 21 5 41 7
44 4 3 -4 -1 -23 -9 -42 -12 -31 -13 -47 -2 -103 21 -105 17 -266 -7 -382 -13
-60 -18 -105 -13 -110 5 -5 41 2 84 16 60 21 86 24 133 19 70 -7 108 12 153
77 20 28 45 48 81 64 28 13 54 28 58 33 3 6 11 119 17 253 10 226 9 244 -7
275 -26 47 -35 26 -35 -82 0 -118 -27 -222 -86 -337 -48 -93 -84 -128 -131
-128 -25 0 -60 48 -96 130 -11 25 -41 81 -66 124 -46 80 -46 80 -46 175 -1
107 10 303 21 369 7 47 -5 56 -30 20z"/>
<path d="M5235 5430 c-18 -20 -18 -22 4 -65 22 -45 22 -46 4 -83 -17 -35 -20
-37 -60 -34 l-43 3 8 -33 c4 -18 7 -57 7 -86 0 -48 -3 -57 -34 -84 -32 -29
-38 -30 -97 -25 -71 5 -75 -4 -24 -55 15 -15 55 -79 89 -143 35 -63 67 -115
72 -115 16 0 42 50 82 158 39 105 40 110 45 267 4 154 -8 298 -28 310 -4 2
-15 -4 -25 -15z"/>
<path d="M5128 5363 c-34 -40 -25 -83 17 -83 28 0 41 33 31 75 -7 29 -27 32
-48 8z"/>
<path d="M6344 5288 c-22 -24 -66 -75 -97 -115 -50 -63 -69 -78 -147 -119 -54
-27 -99 -58 -111 -76 l-22 -30 31 -41 c18 -23 56 -76 86 -117 30 -41 91 -120
135 -175 72 -89 81 -105 81 -142 0 -36 -5 -45 -27 -60 -16 -10 -62 -46 -105
-80 -42 -33 -86 -64 -97 -68 -34 -11 -24 -25 18 -25 22 0 51 -4 66 -10 54 -21
377 -80 570 -105 110 -14 217 -31 238 -36 43 -11 151 -107 195 -174 32 -48 96
-227 166 -465 26 -86 60 -189 78 -230 17 -41 41 -101 53 -134 l22 -58 61 73
c95 113 94 102 34 459 -33 200 -68 365 -99 480 -47 170 -50 177 -104 245 -56
70 -165 227 -206 296 -11 20 -58 67 -104 103 -45 37 -123 116 -172 174 -109
131 -382 427 -419 453 -43 31 -78 25 -124 -23z"/>
<path d="M5080 5233 c0 -23 22 -83 30 -83 15 0 12 27 -5 60 -15 29 -25 38 -25
23z"/>
<path d="M5440 5130 c0 -37 14 -55 29 -37 9 11 7 19 -9 38 l-19 24 -1 -25z"/>
<path d="M5590 4989 c17 -33 30 -70 28 -82 -4 -32 -38 -25 -68 15 -14 18 -40
48 -57 68 l-32 35 -1 -51 c0 -28 -3 -93 -7 -144 -4 -65 -3 -92 5 -89 17 6 135
107 203 173 49 48 58 61 47 71 -11 10 -132 65 -144 65 -2 0 10 -27 26 -61z"/>
<path d="M4665 4905 c-33 -18 -134 -59 -225 -90 -91 -32 -169 -61 -175 -66 -6
-6 -3 -20 9 -39 9 -17 31 -70 47 -117 24 -71 29 -103 29 -179 0 -51 4 -95 9
-98 21 -13 200 144 245 214 33 51 80 179 110 298 14 56 26 105 26 107 0 9 -14
3 -75 -30z"/>
<path d="M4781 4879 c-6 -18 -11 -45 -11 -60 0 -47 -57 -210 -95 -274 -90
-149 -163 -217 -297 -278 -116 -53 -132 -101 -76 -226 l25 -54 43 59 c58 78
140 158 242 234 103 78 155 127 174 163 30 56 53 197 49 302 -4 118 -13 165
-30 165 -7 0 -18 -14 -24 -31z"/>
<path d="M5828 4833 c-123 -101 -266 -237 -261 -249 8 -21 -45 -29 -96 -14
-118 34 -155 26 -182 -35 -14 -32 -17 -50 -10 -62 22 -42 74 -76 172 -114 153
-59 160 -62 164 -57 3 2 -1 30 -7 60 -9 44 -9 67 1 105 24 94 24 100 1 116
l-22 15 23 12 c16 9 43 10 88 5 126 -15 133 -14 158 24 20 29 23 46 23 127 0
52 -4 94 -9 94 -5 0 -24 -12 -43 -27z"/>
<path d="M5944 4777 c7 -62 6 -64 -34 -124 -38 -57 -67 -79 -127 -98 -38 -11
-26 -34 35 -63 52 -25 57 -30 60 -63 3 -41 -17 -64 -63 -73 -26 -6 -27 -5 -7
4 38 16 39 40 4 72 -18 15 -43 28 -56 28 -14 0 -31 3 -40 6 -23 9 -20 60 4 84
19 19 19 20 1 20 -30 0 -42 -25 -39 -80 3 -50 5 -53 38 -64 38 -12 71 -58 46
-64 -8 -2 -31 4 -52 13 -20 8 -39 13 -42 11 -2 -3 -1 -21 2 -41 6 -28 12 -35
29 -35 12 0 81 -12 154 -26 l132 -27 83 71 c107 91 142 128 135 144 -4 12
-167 251 -225 330 -15 21 -31 38 -36 38 -4 0 -5 -28 -2 -63z"/>
<path d="M5412 4649 c-15 -23 -15 -22 15 -38 36 -18 41 -13 24 24 -19 41 -22
42 -39 14z"/>
<path d="M5172 4475 c-51 -23 -76 -89 -68 -179 4 -39 10 -112 14 -162 5 -65
12 -97 24 -111 11 -12 18 -40 20 -83 l3 -65 43 -24 c32 -17 69 -57 142 -155
54 -72 110 -156 125 -186 68 -136 103 -164 255 -204 52 -14 107 -35 122 -46
35 -25 40 -25 67 4 l23 24 -54 39 c-29 22 -80 51 -113 64 -94 37 -149 100
-210 239 -27 63 -55 133 -63 155 -13 38 -51 216 -56 260 -3 30 -88 69 -163 73
-40 3 -63 0 -63 -6 0 -15 40 -42 62 -42 32 0 98 -32 98 -47 0 -12 -8 -14 -32
-10 -18 4 -62 9 -97 13 -51 5 -70 12 -88 32 -33 35 -40 87 -18 129 15 27 16
38 7 59 -17 36 -15 42 18 49 36 8 40 37 10 75 -20 27 -12 50 19 50 29 0 41
-22 41 -71 0 -30 6 -53 16 -63 14 -15 14 -17 -1 -22 -18 -7 -55 -75 -55 -101
1 -15 4 -14 21 7 56 70 51 66 59 44 10 -26 38 -48 80 -64 19 -7 51 -25 71 -41
35 -26 38 -27 113 -19 42 5 83 7 91 4 15 -6 24 -31 49 -132 16 -64 90 -201
149 -275 18 -22 80 -82 140 -133 77 -67 112 -92 125 -87 31 12 187 96 206 112
31 27 47 76 35 108 -10 27 -115 172 -192 266 -30 36 -37 51 -29 59 9 9 33 1
94 -30 76 -38 106 -46 352 -92 148 -28 283 -59 299 -68 16 -9 44 -43 63 -75
80 -136 97 -269 53 -407 -21 -65 -24 -93 -23 -205 2 -166 45 -515 64 -515 13
0 217 169 280 231 91 91 90 84 32 255 -28 82 -74 228 -102 324 -104 357 -126
407 -218 491 -37 34 -78 66 -92 71 -14 5 -77 19 -140 29 -201 35 -360 69 -540
116 -96 25 -215 51 -265 59 -136 20 -237 43 -262 59 -31 21 -32 20 -26 -22 3
-24 18 -51 39 -73 36 -38 42 -65 20 -95 -13 -18 -14 -18 -32 5 -37 46 -76 80
-94 80 -9 0 -31 7 -49 16 l-33 16 32 20 c23 14 35 16 45 8 9 -7 16 -6 25 5 19
23 -5 45 -51 45 -21 0 -71 13 -111 29 -103 40 -136 47 -144 26 -9 -22 21 -52
65 -66 44 -14 91 -41 91 -51 0 -4 -11 -8 -23 -8 -88 0 -191 74 -185 132 2 25
9 34 28 38 l25 6 -30 16 c-40 21 -62 47 -67 78 -4 30 -22 34 -66 15z"/>
<path d="M5002 4414 c-31 -21 -60 -82 -68 -142 -7 -53 31 -424 46 -452 11 -21
58 -15 86 11 30 29 31 65 2 206 -23 113 -31 341 -14 376 11 22 -20 24 -52 1z"/>
<path d="M4835 4366 c-75 -33 -120 -142 -146 -351 -6 -49 -22 -161 -35 -249
-14 -94 -24 -202 -24 -267 0 -130 -13 -201 -85 -449 -101 -351 -135 -571 -115
-743 13 -119 29 -225 36 -249 6 -21 44 -33 169 -52 220 -34 559 -45 770 -26
497 46 933 198 1386 483 136 85 136 85 114 248 -9 68 -20 202 -25 297 -4 95
-10 176 -13 178 -3 3 -13 -5 -21 -19 -39 -58 -413 -387 -442 -387 -3 0 12 20
34 44 46 50 57 80 48 134 -11 69 -210 332 -276 364 -29 14 -39 14 -94 1 -64
-15 -89 -28 -146 -76 -19 -16 -60 -43 -90 -61 -60 -34 -70 -59 -33 -83 20 -13
25 -11 72 31 81 72 90 71 169 -12 53 -55 78 -73 119 -87 78 -25 105 -73 63
-115 -26 -26 -65 -28 -52 -2 15 28 3 42 -62 72 -75 33 -128 77 -150 125 -9 19
-22 35 -27 35 -6 0 -31 -18 -56 -39 -48 -43 -116 -71 -170 -71 -47 0 -73 -16
-73 -45 0 -35 31 -62 81 -70 78 -12 109 -26 137 -63 15 -20 52 -61 82 -92 l55
-55 62 35 61 36 -20 36 c-42 73 12 95 69 29 19 -23 46 -42 63 -46 39 -8 53
-32 76 -120 30 -118 18 -376 -19 -422 -13 -17 -44 -16 -50 1 -3 8 2 50 11 94
14 70 15 93 3 184 -13 113 -32 161 -73 191 -23 17 -31 18 -60 8 -100 -35 -154
-107 -144 -195 3 -28 8 -110 12 -182 6 -129 6 -130 -19 -159 -21 -25 -27 -27
-40 -17 -13 11 -15 31 -10 121 7 135 -9 193 -70 252 -49 47 -72 51 -63 12 4
-16 10 -103 13 -195 6 -172 -1 -220 -33 -232 -25 -10 -37 33 -31 113 3 42 1
127 -6 189 -10 106 -10 113 9 126 15 12 17 19 8 32 -12 20 -95 52 -136 53 -27
1 -178 70 -178 81 0 12 111 60 138 60 l27 -1 -39 -34 c-25 -22 -36 -40 -33
-50 10 -24 38 -18 97 20 30 19 60 35 67 35 31 0 24 -45 -8 -55 -41 -13 -11
-30 64 -35 85 -7 117 -26 143 -87 21 -50 34 -40 34 27 0 59 0 59 -76 150 -77
93 -91 103 -173 121 -25 5 -58 19 -73 29 -15 11 -33 20 -41 20 -28 0 -105 -59
-142 -110 -32 -43 -40 -63 -43 -109 -4 -58 3 -82 84 -271 35 -83 37 -182 5
-254 -31 -71 -47 -56 -42 37 3 85 -16 160 -54 205 -34 40 -65 152 -65 233 0
147 48 210 269 355 116 76 135 93 151 130 10 23 27 44 37 46 10 3 -29 19 -87
37 -192 61 -212 77 -315 256 -78 136 -71 130 -113 94 -32 -29 -39 -31 -81 -24
-112 18 -128 9 -117 -68 12 -78 44 -100 260 -178 33 -12 70 -32 83 -45 25 -25
31 -72 11 -92 -19 -19 -25 -14 -20 19 6 40 -18 36 -29 -5 -9 -33 1 -64 30 -90
28 -25 27 -29 -15 -76 -58 -64 -90 -54 -129 43 -22 55 -71 95 -103 82 -15 -6
-15 -8 5 -23 47 -38 93 -176 93 -281 0 -37 9 -89 25 -136 26 -81 52 -241 41
-252 -15 -15 -47 38 -89 147 -25 63 -48 141 -52 174 l-7 59 -29 -44 c-45 -68
-87 -186 -100 -285 -10 -75 -9 -114 6 -251 20 -174 15 -213 -23 -213 -34 0
-52 32 -52 96 -1 57 -4 96 -30 354 -13 126 -26 160 -95 250 -23 30 -52 75 -65
100 -29 58 -38 155 -17 196 39 75 107 98 117 39 6 -33 36 -47 46 -21 15 38
-34 118 -83 137 -31 12 -82 -9 -111 -46 -27 -34 -28 -85 -6 -162 35 -119 1
-199 -106 -253 -33 -17 -64 -39 -70 -49 -14 -28 -13 -84 4 -106 13 -17 18 -18
86 -6 40 7 96 26 125 41 49 26 55 27 68 12 12 -15 12 -30 -1 -112 -7 -52 -15
-166 -16 -253 -3 -149 -4 -159 -26 -182 -29 -31 -36 -31 -55 -1 -14 21 -13 40
5 199 32 281 37 267 -94 242 -104 -19 -146 -13 -166 26 -15 27 -12 135 4 174
19 44 42 55 113 55 33 0 64 5 71 12 17 17 15 71 -8 179 -34 164 -27 190 67
249 35 22 63 45 63 50 0 5 -13 16 -29 25 -39 20 -44 39 -40 154 4 91 3 96 -16
92 -20 -3 -20 -3 0 20 11 12 78 61 150 107 l129 86 -29 12 c-65 26 -73 49
-106 297 -21 158 -21 170 -6 225 9 31 19 65 22 75 9 21 -8 22 -50 3z m1357
-1698 c9 -16 14 -83 16 -214 l4 -191 -26 -29 c-26 -28 -26 -29 -41 -9 -12 15
-14 30 -8 65 11 65 5 222 -12 304 -20 96 -20 96 20 96 25 0 38 -6 47 -22z
m-559 -73 c25 -25 39 -143 35 -309 -2 -125 -6 -158 -19 -171 -16 -17 -44 -12
-52 9 -3 7 -1 52 4 102 6 58 6 137 -1 227 -6 75 -8 142 -5 147 9 14 21 12 38
-5z"/>
<path d="M4615 4221 c-39 -24 -142 -133 -184 -194 -66 -97 -91 -167 -93 -254
-1 -131 44 -202 152 -238 28 -9 53 -15 54 -14 2 2 11 54 19 114 9 61 27 184
40 275 28 185 46 324 43 327 -1 1 -15 -6 -31 -16z"/>
<path d="M4093 3963 c-160 -191 -313 -452 -426 -728 -55 -135 -62 -165 -44
-189 13 -18 15 -18 59 8 54 31 72 32 168 5 108 -30 165 -64 252 -151 61 -61
78 -73 83 -60 3 9 9 82 12 162 5 140 23 248 43 252 6 0 16 1 23 2 9 1 12 -56
12 -254 l0 -255 27 -51 c22 -43 43 -64 63 -64 6 0 17 38 31 114 8 43 39 160
68 260 30 99 62 208 71 241 10 33 18 84 18 114 1 47 -2 56 -26 75 -15 11 -61
34 -102 49 -47 18 -81 37 -92 53 -10 14 -26 35 -36 47 l-17 22 -45 -48 c-52
-56 -56 -85 -25 -147 23 -45 25 -73 7 -88 -13 -11 -122 -51 -262 -97 -97 -31
-232 -52 -246 -38 -15 15 41 43 163 84 114 38 207 83 231 110 10 13 17 38 17
63 0 46 32 119 81 182 26 36 33 55 41 130 13 119 7 210 -17 258 -11 22 -25 41
-31 43 -6 2 -51 -45 -101 -104z"/>
<path d="M5540 4031 c-31 -59 1 -179 106 -394 73 -150 87 -165 179 -197 69
-24 111 -53 130 -91 9 -16 19 -29 24 -29 15 0 43 69 36 89 -3 11 -36 40 -73
65 -38 25 -87 62 -110 82 -83 71 -165 216 -218 389 -32 106 -51 128 -74 86z"/>
<path d="M6320 3865 c0 -3 20 -30 45 -61 41 -49 45 -60 45 -107 0 -69 -15
-119 -43 -145 -13 -12 -70 -47 -128 -78 -102 -55 -139 -80 -139 -95 0 -4 35
-5 78 -2 109 8 154 -19 249 -147 31 -41 79 -98 106 -127 48 -50 51 -51 76 -38
34 17 273 261 300 305 16 27 21 51 21 105 -1 80 -14 123 -60 194 -44 69 -109
99 -339 156 -181 44 -211 50 -211 40z"/>
<path d="M5071 3774 c-73 -55 -77 -60 -53 -73 12 -6 22 -26 26 -51 5 -32 10
-41 24 -38 18 4 20 18 8 56 -6 19 -4 22 19 22 37 0 65 -16 101 -57 21 -24 37
-34 48 -30 19 7 22 58 5 90 -16 30 -99 127 -109 127 -4 0 -35 -21 -69 -46z"/>
<path d="M4920 3663 c-41 -16 -70 -45 -70 -72 0 -16 -11 -59 -25 -95 -27 -72
-32 -130 -12 -143 6 -4 44 -6 84 -4 71 3 72 3 88 -29 17 -34 13 -46 -27 -80
-17 -14 -16 -18 22 -75 22 -33 39 -69 38 -80 -2 -12 -19 -28 -42 -39 -38 -19
-40 -19 -73 0 -34 18 -35 18 -49 -1 -8 -10 -14 -26 -14 -35 0 -16 39 -79 115
-185 20 -27 43 -67 52 -87 8 -21 18 -38 22 -37 14 1 132 256 132 284 0 17 -15
57 -32 90 -37 69 -35 108 6 127 51 23 146 -19 177 -80 9 -19 24 -42 34 -53 26
-28 39 -8 20 29 -9 17 -16 42 -16 56 0 77 -48 127 -154 162 -148 48 -166 64
-173 161 -4 52 -11 74 -28 93 -13 14 -27 40 -32 59 -9 36 -18 43 -43 34z"/>
<path d="M4872 3300 c-31 -19 -31 -20 -15 -40 31 -36 78 -16 71 31 -4 30 -17
32 -56 9z"/>
<path d="M3700 2983 c-37 -24 -201 -167 -315 -273 -55 -51 -113 -100 -128
-110 l-29 -18 34 -25 c97 -73 423 -248 618 -332 74 -32 258 -105 265 -105 10
0 14 101 16 343 l2 277 -88 90 c-97 97 -150 131 -240 155 -76 19 -105 19 -135
-2z"/>
<path d="M4845 2879 c5 -8 25 -39 45 -69 21 -30 49 -79 64 -108 15 -30 30 -52
32 -49 12 12 -108 215 -137 233 -8 5 -9 3 -4 -7z"/>
<path d="M4246 2622 c-14 -23 -26 -197 -24 -346 2 -136 5 -169 18 -180 14 -13
150 -49 157 -42 2 2 -6 46 -18 97 -17 72 -23 128 -24 244 -1 159 -6 179 -51
214 -28 22 -49 27 -58 13z"/>
<path d="M8581 7477 c-58 -23 -106 -48 -108 -54 -5 -15 49 -103 63 -103 12 0
184 182 184 194 0 14 -40 3 -139 -37z"/>
<path d="M1357 7402 c-25 -28 -21 -57 14 -97 69 -78 313 -215 385 -215 36 0
64 26 64 60 0 31 -63 88 -175 158 -181 112 -251 135 -288 94z"/>
<path d="M5255 7061 c-18 -7 -18 -9 11 -24 16 -8 62 -19 102 -22 61 -6 72 -5
72 7 0 9 -6 20 -13 27 -17 14 -146 23 -172 12z"/>
<path d="M4766 6754 c-29 -29 -13 -109 28 -143 14 -12 16 -8 16 31 0 49 13 68
47 68 28 0 29 14 3 40 -24 24 -72 26 -94 4z"/>
<path d="M1483 3689 c-114 -45 -122 -56 -77 -104 22 -24 30 -27 66 -21 43 7
92 29 120 53 31 28 35 113 5 113 -7 0 -58 -19 -114 -41z"/>
<path d="M8214 2943 c-29 -6 -67 -47 -62 -69 2 -10 41 -47 88 -83 47 -36 138
-107 203 -158 65 -51 124 -93 132 -93 39 0 58 86 31 138 -31 60 -213 209 -307
252 -45 20 -48 20 -85 13z"/>
<path d="M2009 2718 c-207 -159 -279 -219 -279 -235 0 -27 47 -63 83 -63 84 0
362 230 384 318 7 29 -15 75 -38 80 -8 1 -76 -44 -150 -100z"/>
<path d="M7726 2459 c-14 -11 -26 -26 -26 -32 1 -7 38 -52 84 -101 l84 -89 26
26 c35 35 34 81 -2 136 -53 78 -115 101 -166 60z"/>
<path d="M2535 2418 c-112 -63 -345 -351 -345 -426 0 -23 30 -52 54 -52 50 0
173 107 281 245 101 130 125 193 87 228 -21 20 -48 21 -77 5z"/>
<path d="M3276 1837 c-60 -63 -145 -225 -182 -344 -13 -42 -13 -43 14 -57 15
-8 36 -23 46 -35 11 -12 25 -21 31 -21 44 0 213 336 217 431 4 81 -61 95 -126
26z"/>
<path d="M3070 1381 c0 -20 25 -51 40 -51 18 0 21 22 6 45 -20 30 -46 33 -46
6z"/>
<path d="M6267 1588 c-16 -12 -15 -19 13 -98 49 -137 49 -138 70 -133 40 11
70 53 70 100 0 49 -30 117 -59 133 -27 14 -74 13 -94 -2z"/>
<path d="M6362 1301 c-11 -7 -7 -31 23 -124 21 -65 43 -118 51 -121 22 -8 81
19 93 43 28 52 8 145 -40 186 -31 26 -99 35 -127 16z"/>
<path d="M5717 1333 c-9 -14 -30 -234 -23 -241 7 -6 125 14 134 23 4 3 -19 56
-49 117 -31 61 -58 107 -62 101z"/>
<path d="M4677 1283 c-29 -58 -79 -194 -74 -199 3 -3 33 -8 67 -11 l62 -6 -6
39 c-3 21 -11 76 -17 122 -6 45 -13 82 -15 82 -2 0 -10 -12 -17 -27z"/>
</g>
</svg>
